<svg xmlns="http://www.w3.org/2000/svg" viewBox="0 0 200 200" width="200" height="200">
  <rect width="200" height="200" fill="white"/>
  <rect x="10" y="10" width="180" height="180" rx="8" fill="white" stroke="#2563EB" stroke-width="2"/>
  <!-- Outer finder patterns -->
  <rect x="20" y="20" width="40" height="40" rx="4" fill="#2563EB"/>
  <rect x="26" y="26" width="28" height="28" fill="white"/>
  <rect x="32" y="32" width="16" height="16" fill="#2563EB"/>
  <rect x="140" y="20" width="40" height="40" rx="4" fill="#2563EB"/>
  <rect x="146" y="26" width="28" height="28" fill="white"/>
  <rect x="152" y="32" width="16" height="16" fill="#2563EB"/>
  <rect x="20" y="140" width="40" height="40" rx="4" fill="#2563EB"/>
  <rect x="26" y="146" width="28" height="28" fill="white"/>
  <rect x="32" y="152" width="16" height="16" fill="#2563EB"/>
  <!-- Data modules -->
  <rect x="68" y="32" width="8" height="8" fill="#2563EB"/>
  <rect x="84" y="32" width="8" height="8" fill="#2563EB"/>
  <rect x="100" y="20" width="8" height="8" fill="#2563EB"/>
  <rect x="116" y="26" width="8" height="8" fill="#2563EB"/>
  <rect x="132" y="38" width="8" height="8" fill="#2563EB"/>
  <rect x="60" y="48" width="8" height="8" fill="#2563EB"/>
  <rect x="76" y="54" width="8" height="8" fill="#2563EB"/>
  <rect x="92" y="42" width="8" height="8" fill="#2563EB"/>
  <rect x="108" y="48" width="8" height="8" fill="#2563EB"/>
  <rect x="124" y="54" width="8" height="8" fill="#2563EB"/>
  <rect x="68" y="66" width="8" height="8" fill="#2563EB"/>
  <rect x="84" y="72" width="8" height="8" fill="#2563EB"/>
  <rect x="100" y="60" width="8" height="8" fill="#2563EB"/>
  <rect x="116" y="66" width="8" height="8" fill="#2563EB"/>
  <rect x="132" y="72" width="8" height="8" fill="#2563EB"/>
  <rect x="60" y="84" width="8" height="8" fill="#2563EB"/>
  <rect x="76" y="90" width="8" height="8" fill="#2563EB"/>
  <rect x="92" y="78" width="8" height="8" fill="#2563EB"/>
  <rect x="108" y="84" width="8" height="8" fill="#2563EB"/>
  <rect x="124" y="90" width="8" height="8" fill="#2563EB"/>
  <rect x="68" y="102" width="8" height="8" fill="#2563EB"/>
  <rect x="84" y="108" width="8" height="8" fill="#2563EB"/>
  <rect x="100" y="96" width="8" height="8" fill="#2563EB"/>
  <rect x="116" y="102" width="8" height="8" fill="#2563EB"/>
  <rect x="60" y="120" width="8" height="8" fill="#2563EB"/>
  <rect x="76" y="126" width="8" height="8" fill="#2563EB"/>
  <rect x="92" y="114" width="8" height="8" fill="#2563EB"/>
  <rect x="108" y="120" width="8" height="8" fill="#2563EB"/>
  <rect x="124" y="126" width="8" height="8" fill="#2563EB"/>
  <rect x="60" y="138" width="8" height="8" fill="#2563EB"/>
  <rect x="76" y="144" width="8" height="8" fill="#2563EB"/>
  <rect x="92" y="150" width="8" height="8" fill="#2563EB"/>
  <rect x="108" y="138" width="8" height="8" fill="#2563EB"/>
  <rect x="124" y="144" width="8" height="8" fill="#2563EB"/>
  <rect x="140" y="150" width="8" height="8" fill="#2563EB"/>
  <rect x="156" y="138" width="8" height="8" fill="#2563EB"/>
  <rect x="168" y="144" width="8" height="8" fill="#2563EB"/>
  <rect x="156" y="156" width="8" height="8" fill="#2563EB"/>
  <rect x="168" y="168" width="8" height="8" fill="#2563EB"/>
  <rect x="80" y="158" width="8" height="8" fill="#2563EB"/>
  <rect x="96" y="164" width="8" height="8" fill="#2563EB"/>
  <rect x="112" y="170" width="8" height="8" fill="#2563EB"/>
</svg>
